<?xml version="1.0" standalone="no"?>
<!DOCTYPE svg PUBLIC "-//W3C//DTD SVG 20010904//EN"
 "http://www.w3.org/TR/2001/REC-SVG-20010904/DTD/svg10.dtd">
<svg version="1.0" xmlns="http://www.w3.org/2000/svg"
 width="1280.000000pt" height="640.000000pt" viewBox="0 0 1280.000000 640.000000"
 preserveAspectRatio="xMidYMid meet">
<metadata>
Created by potrace 1.15, written by Peter Selinger 2001-2017
</metadata>
<g transform="translate(0.000000,640.000000) scale(0.100000,-0.100000)"
fill="#000000" stroke="none">
<path d="M4850 4779 c-240 -22 -523 -117 -758 -255 -187 -110 -290 -192 -467
-370 -149 -150 -179 -175 -245 -207 -153 -75 -288 -94 -745 -107 -192 -6 -609
-19 -925 -30 -751 -26 -836 -26 -875 0 -27 18 -47 20 -192 20 -158 0 -162 -1
-191 -25 -27 -22 -39 -25 -115 -25 -99 0 -153 -18 -168 -56 -5 -15 -16 -70
-25 -123 -32 -192 -15 -807 24 -875 34 -58 64 -71 159 -69 78 3 88 1 115 -22
29 -24 33 -25 198 -25 99 0 171 4 175 10 18 28 91 30 726 10 354 -11 795 -22
979 -25 547 -9 692 -24 825 -84 56 -26 93 -57 238 -198 95 -92 206 -195 247
-229 298 -243 660 -391 1060 -433 158 -17 1823 -26 4718 -26 1949 0 2745 3
2750 11 4 6 47 23 96 38 114 35 192 72 216 103 43 55 79 217 106 478 21 200
31 1410 15 1695 -18 302 -46 465 -100 584 -37 82 -74 118 -146 145 -173 65
-305 80 -765 86 -610 9 -6843 12 -6930 4z"/>
</g>
</svg>
